<?xml version="1.0" encoding="utf-8"?>
<!-- Generator: Adobe Illustrator 16.0.0, SVG Export Plug-In . SVG Version: 6.00 Build 0)  -->
<!DOCTYPE svg PUBLIC "-//W3C//DTD SVG 1.1//EN" "http://www.w3.org/Graphics/SVG/1.1/DTD/svg11.dtd">
<svg version="1.1" id="Capa_1" xmlns="http://www.w3.org/2000/svg" xmlns:xlink="http://www.w3.org/1999/xlink" x="0px" y="0px"
	 width="285.253px" height="100.402px" viewBox="0 0 285.253 100.402" enable-background="new 0 0 285.253 100.402"
	 xml:space="preserve">
<g>
	<g>
		<path fill-rule="evenodd" clip-rule="evenodd" fill="#FBFBFB" d="M6.153,100.096c-5.129,1.129-6.202-0.861-6.152-6.002
			c0.304-31.33,0.152-62.665,0.152-93.998c93.667,0,187.334,0.024,281-0.096c3.424-0.004,4.119,0.669,4.1,4.097
			c-0.17,30.832-0.152,61.666-0.015,92.499c0.013,2.983-0.603,3.587-3.585,3.582c-70.834-0.105-141.667-0.082-212.5-0.082
			c-0.117-2.507-2.083-5.965,3.02-5.772c0.722,0.027,1.187-0.474,1.18-1.275c-0.008-0.954-0.754-0.856-1.37-1.035
			c-1.071-0.313-3.124,0.896-2.953-1.387c0.149-1.992,2.088-0.943,3.224-1.286c0.598-0.181,1.243-0.405,1.682-0.81
			c0.169-0.157-0.058-1.188-0.304-1.278c-2.237-0.825-4.609-0.614-6.854-0.261c-2.181,0.344-1.147,2.409-1.246,3.724
			c-0.233,3.119-0.265,6.253-0.378,9.381c-0.667,0-1.333,0-2,0c0.141-2.832-1.857-2.559-3.69-2.561
			c-1.141-0.001-2.441,0.193-2.407-1.607c0.025-1.297,0.803-1.524,1.933-1.679c1.091-0.149,3.228,0.948,2.992-1.248
			c-0.188-1.748-2.186-0.686-3.358-0.907c-0.856-0.162-1.66-0.208-1.556-1.355c0.062-0.687,0.37-1.154,1.109-1.415
			c1.468-0.52,4.56,1.079,4.113-1.591c-0.302-1.81-3.512-0.512-5.392-0.827c-2.133-0.357-2.945,0.516-2.802,2.716
			c0.203,3.137,0.148,6.289,0.203,9.436c-0.048,0.347-0.096,0.692-0.144,1.039c-1,0-2,0-3,0c-0.6-2.097-2.665-3.928-1.396-6.362
			c1.089-2.089,1.599-4.192-0.366-5.845c-2.078-1.749-4.89-1.383-7.159-0.816c-2.591,0.646-1.083,3.34-1.224,5.085
			c-0.211,2.625,0.071,5.29,0.144,7.938c-1.667,0-3.333,0-5,0c0.436-3.91-3.219-8.794,2.706-11.441
			c0.12-0.053,0.039-0.964-0.193-1.312c-0.481-0.724-8.278-0.816-8.658-0.046c-1.354,2.752,1.852,1.467,2.325,2.537
			c0.377,0.853,0.498,1.858,0.552,2.807c0.142,2.482,0.185,4.97,0.268,7.455c-1.667,0-3.333,0-5,0
			c-0.12-2.774-0.026-5.581-0.438-8.312c-0.249-1.651,1.6-4.757-1.569-4.71c-2.47,0.037-0.64,3.021-1.357,4.508
			c-0.131,0.272-0.397,0.479-0.608,0.725c-1.304-0.783-1.601-2.118-2.153-3.277c-0.68-1.428-1.538-2.664-3.352-2.119
			c-1.808,0.543-1.078,2.171-1.144,3.377c-0.181,3.267-0.26,6.539-0.379,9.809c-1.667,0-3.333,0-5,0
			c2.61-3.526,1.34-7.601,1.609-11.456c0.065-0.928-0.316-1.646-1.319-1.728c-1.411-0.117-1.541,0.875-1.538,1.941
			c0.006,1.989-0.034,3.979,0.007,5.966c0.031,1.526-0.357,2.655-2.157,2.553c-1.583-0.091-1.697-1.248-1.69-2.481
			c0.012-2.154-0.021-4.31-0.005-6.464c0.007-1.043-0.595-1.46-1.507-1.536c-0.703-0.059-1.461,0.175-1.38,0.979
			C4.59,91.981,2.552,96.504,6.153,100.096z M29.492,43.283c1.282,0.461,1.322,1.529,1.681,2.677
			c0.628,2.009-2.064,6.069,1.811,5.759c3.291-0.265,0.444-3.876,0.636-5.91c0.328-3.487-1.292-5.931-5.457-3.691
			c-3.934-0.956-4.446-0.729-3.688,0.922c1.055,2.299,0.401,4.534,0.69,6.771c0.123,0.954-0.023,2.201,1.375,2.128
			c1.287-0.067,1.278-1.251,1.35-2.245C28.05,47.465,27.292,45.003,29.492,43.283z M152.065,41.779
			c-3.303-1.39-5.645,0.01-6.666,3.008c-0.854,2.507-0.936,5.481,2.114,6.863c2.056,0.932,4.386,1.264,5.866-2.149
			c-2.582,0.105-5.752,1.588-5.855-2.276c-0.053-1.973,0.516-4.167,3.526-3.073c3.831-0.81,3.444,1.792,3.354,4.149
			c-0.031,0.822-0.119,1.645-0.098,2.465c0.019,0.763,0.525,1.221,1.25,1.196c0.419-0.015,1.147-0.302,1.19-0.559
			c0.543-3.228,1.134-6.612-0.256-9.629C155.505,39.631,153.582,42.292,152.065,41.779z M212.112,64.635
			c-3.18-1.095-5.736-0.23-6.803,2.964c-0.859,2.575-0.864,5.492,2.072,6.965c2.089,1.047,4.359,1.176,6.437-2.869
			c-3.452,1.536-6.154,1.917-6.288-1.655c-0.074-1.95,0.404-4.311,3.521-2.895c2.453,0.029,3.927,0.818,3.188,3.697
			c-0.235,0.919-0.025,1.963,0.047,2.944c0.054,0.737,0.516,1.226,1.262,1.161c0.422-0.036,1.109-0.302,1.181-0.589
			c0.729-2.901,0.796-5.961,0.116-8.757C216.247,63.15,213.71,65.073,212.112,64.635z M48.121,65.293
			c-2.899-1.929-5.821-0.078-10.184-0.677c2.563,2.068,2.087,3.757,2.205,5.36c0.122,1.667-0.452,3.493,1.051,5.598
			c1.727-2.366,0.856-4.576,1.232-6.521c0.216-1.117,0.421-2.56,1.863-2.53c1.445,0.029,1.502,1.432,1.663,2.579
			c0.272,1.944-0.683,4.156,1.278,6.46c1.586-2.985,0.553-5.684,1.107-8.133c1.495-1.006,2.784-1.275,3.038,1.07
			c0.141,1.307,0.079,2.637,0.092,3.956c0.014,1.415,0.158,2.812,2.083,2.531c2.494-0.364,0.828-1.734,0.652-2.827
			c-0.182-1.128-0.039-2.305-0.101-3.457C53.86,64.245,52.553,63.506,48.121,65.293z M248.337,72.055
			c0.752-0.553,0.822-1.327,0.705-2.163c-0.318-1.283-0.371-2.722-1.012-3.816c-1.168-1.998-3.126-2.342-5.211-1.495
			c-2.887,1.172-3.061,3.654-2.847,6.267c0.23,2.821,1.937,4.143,4.608,4.251C246.635,75.181,248.833,75.219,248.337,72.055z
			 M23.174,47.141c0.666-3.088-0.228-5.549-3.575-5.8c-3.115-0.233-4.782,1.822-5.028,4.957c-0.072,0.918,0.406,2.02-0.723,2.663
			c-1.106,0.25-2.202,0.571-3.32,0.733c-1.72,0.248-2.914-0.576-3.376-2.192c-0.607-2.12-0.775-4.316,0.923-6.036
			c0.714-0.724,1.797-1.811,2.925-0.495c0.706,0.824,1.37,1.564,2.348,0.667c0.375-0.344,0.449-1.219,0.37-1.813
			c-0.187-1.415-1.246-1.718-2.523-1.793c-3.379-0.198-6.028,1.061-6.878,4.374c-0.824,3.208-1.16,6.662,2.279,8.901
			c3.073,2,5.752,1.059,7.148-2.407c1.827-0.108,1.479,2.44,3.054,2.548c2.419,0.165,5.883,3.069,6.322-2.284
			C23.137,48.489,23.155,47.814,23.174,47.141z M82.18,47.154c0.386-3.196-0.521-5.849-4.116-5.813
			c-3.624,0.036-4.873,2.685-4.829,6.076c0.011,0.901,0.704,1.909-0.242,2.736c-2.17-0.974-1.012-2.898-1.146-4.38
			c-0.211-2.315-0.06-4.661-0.122-6.992c-0.034-1.268-0.865-1.661-2.021-1.595c-0.898,0.052-2.002,0.421-1.403,1.365
			c1.985,3.131-0.952,2.671-2.267,3.251c-2.785,1.23-3.209,3.527-3.152,6.183c0.04,1.837,0.747,4.001,2.376,3.823
			c2.526-0.276,5.846,1.865,7.619-1.769c1.672-0.61,1.794,1.617,3.04,1.685c2.396,0.13,5.634,2.258,6.129-2.433
			C82.09,48.58,82.135,47.867,82.18,47.154z M124.122,42.803c-7.251-3.01-9.177-1.603-9.294,6.753
			c-0.002,0.177-0.491,0.346-0.752,0.519c-1.31-0.471-0.87-1.609-0.92-2.52c-0.338-6.229-0.512-6.532-7.545-5.984
			c-5.45,0.425,0.469,3.624-1.012,5.513c-0.58,0.738-1.514,4.662,1.414,4.617c2.107-0.031,0.86-3.03,1.086-4.684
			c0.184-1.346,0.057-3.102,1.635-3.197c2.085-0.125,1.272,1.864,1.402,3.025c0.129,1.151,0.048,2.325,0.062,3.49
			c0.015,1.247,0.69,1.734,1.89,1.732c1.435-0.003,2.238-0.499,1.875-2.082c2.516,0.815,4.641,3.727,7.728,1.488
			c2.941-2.132,2.7-4.999,1.825-8.023c-0.058-0.198,0.334-0.527,0.523-0.778c0.5,0.832,0.984,1.674,1.503,2.495
			c1.39,2.197,0.234,6.768,3.706,6.559c3.258-0.196,2.512-4.738,3.918-7.163c0.158-0.272,0.117-0.656,0.252-0.949
			c0.494-1.07,0.49-1.95-0.922-2.106c-1.127-0.126-2.446-0.354-2.267,1.544c0.132,1.393,0.446,2.866-0.968,3.592
			C127.037,45.728,129.417,39.454,124.122,42.803z M168.37,43.112c2.988,1.882,0.908,4.843,1.52,7.233
			c0.213,0.829,0.258,1.652,1.403,1.55c0.947-0.085,0.834-0.884,0.892-1.483c0.078-0.82,0.049-1.652,0.043-2.479
			c-0.012-1.651-0.26-4.034,1.683-4.108c2.445-0.094,1.247,2.462,1.584,3.892c0.388,1.646-1.097,4.757,2.349,4.167
			c3.357-0.574-0.688-2.433,0.201-3.743c0.307-0.453,0.031-1.291,0.047-1.953c0.044-1.844,0.184-4.412-1.983-4.434
			c-2.483-0.025-5.597-1.556-7.627,1.433c-1.563,0.961-1.789-0.93-2.71-1.351c-2.254-1.033-4.177-0.904-5.791,0.96
			c-1.984,2.291-1.845,4.938-0.631,7.468c0.927,1.932,2.861,2.165,4.756,1.817c2.742-0.503,3.453-2.624,4.037-5.032
			C168.472,45.69,166.64,44.292,168.37,43.112z M191.624,71.616c-0.357-0.337-0.715-0.673-1.072-1.01
			c0.271-0.419,0.542-0.837,0.811-1.257c0.908-1.416,3.367-2.919,1.313-4.5c-1.557-1.197-4.28-0.872-6.246-0.081
			c-1.396,0.563-1.492,2.792,0.12,2.919c2.96,0.232,1.944,1.128,0.938,2.49c-0.86,1.164-2.448,2.28-1.716,3.863
			c0.903,1.952,3.012,0.524,4.467,1.027c2.299,0.795,3.218-1.5,4.92-1.984c1.823,4.322,5.63,0.028,8.063,1.808
			c0.041,0.029,0.869-0.792,0.809-0.886c-1.525-2.408-0.104-5.305-1.16-7.645c-1.162-2.569-3.707-2.366-6.075-1.935
			c-1.54,0.28-2.046,2.162-1.335,2.511c3.863,1.894-0.913,2.681-0.365,4.03C194.199,72.594,192.761,71.299,191.624,71.616z
			 M228.335,66.107c2.213,1.853,0.695,4.355,1.116,6.522c0.188,0.971,0.044,2.193,1.345,2.3c1.954,0.16,1.277-1.481,1.429-2.481
			c0.099-0.651,0.03-1.329,0.019-1.995c-0.027-1.511-0.181-3.578,1.586-3.712c2.266-0.172,1.302,2.123,1.649,3.417
			c0.472,1.754-1.395,5.227,2.308,4.707c3.548-0.498-0.986-2.77,0.289-4.187c0.248-0.275,0.014-0.968,0.035-1.466
			c0.082-1.876,0.139-4.402-1.92-4.581c-2.531-0.22-5.719-1.569-7.738,1.558c-1.349,0.869-1.543-0.702-2.238-1.125
			c-2.312-1.406-4.494-1.277-6.287,0.646c-1.883,2.021-1.803,4.564-0.845,6.979c0.86,2.17,2.776,2.762,4.903,2.323
			c2.906-0.6,3.705-2.841,4.129-5.475C228.302,68.377,226.638,67.116,228.335,66.107z M66.215,65.799
			c1.188,2.016,0.517,4.236,0.706,6.362c0.109,1.226-0.425,2.96,1.756,2.787c2.667-0.21,0.918-1.752,0.755-2.804
			c-0.409-2.64,0.204-4.845,2.663-6.265c1.717-0.434,1.397,0.558,1.218,1.625c-0.596,3.545-0.413,6.59,4.035,7.639
			c5.369,1.265,3.582-3.349,4.629-5.509c0.79-1.627-0.004-3.283-1.31-4.445c-1.345-1.198-2.887-1.041-4.643-0.676
			c-1.271,0.266-2.153,3.414-3.912,0.72c-1.997-1.222-3.956-0.766-5.904,0.133c-1.556,1.979-2.066-0.59-3.144-0.73
			c-2.657-0.347-7.029-0.608-7.09,1.414c-0.101,3.318-0.016,6.869,0.255,10.305c0.089,1.13,0.328,1.995,1.641,1.92
			c0.712-0.041,2.235,0.142,1.795-0.874c-1.211-2.794,1.127-2.454,2.342-2.962c2.332-0.973,2.938-2.785,3.308-5.092
			C65.5,68.204,63.73,66.364,66.215,65.799z M48.025,44.184c1.572,0.767,0.257,2.011,0.455,3.018
			c0.47,2.385,0.884,4.665,3.927,4.935c2.41,0.213,4.229-0.609,5.147-2.98c0.986-2.548,0.856-5.042-1.262-6.852
			c-2.058-1.759-4.279-1.279-6.318,0.438c-0.641,0.54-0.616,2.054-2.051,1.519c-0.284-2.171-1.656-2.464-3.56-2.307
			c-1.79,0.147-4.242,0.484-5.113-1.109c-2.893-5.297-3.565,0.53-3.557,0.939c0.059,2.866,0.361,5.772,1.019,8.563
			c0.387,1.641,2.294,2.467,3.621,1.544c2.372-1.649-0.856-1.576-1.055-2.506c-0.206-0.963-0.367-1.939-0.468-2.919
			c-0.15-1.454,0.162-2.815,1.872-2.944c2.362-0.177,1.202,1.744,1.364,2.764c0.181,1.137-0.03,2.331,0.077,3.486
			c0.111,1.204,0.641,2.415,2.079,1.992c1.52-0.448,0.344-1.448,0.201-2.313C43.712,45.26,44.169,44.667,48.025,44.184z
			 M140.128,65.157c-0.638-3.941-3.488-4.716-6.609-3.91c-4.217,1.088-4.632,4.716-4.295,8.342c0.287,3.086,1.784,5.421,5.22,5.472
			c3.785,0.057,5.671-2.2,6.05-5.8c0.1-0.946-0.12-1.926-0.193-2.89c1.817-0.523,1.853,0.733,1.883,1.925
			c0.041,1.646,0.031,3.293,0.033,4.938c0.002,1.572,0.93,2.005,2.264,1.712c1.352-0.296,1.22-1.071,0.713-2.172
			c-0.721-1.566-0.229-3.221,0.065-4.845c0.27-1.494,3.559-0.791,2.4-2.864c-1.044-1.869-3.218,0.395-4.897-0.492
			C142.157,64.253,141.022,64.934,140.128,65.157z M14.056,73.052c-2.252-0.873-1.083-2.807-1.211-4.255
			c-0.203-2.298-0.065-4.625-0.109-6.939c-0.023-1.233-0.763-1.719-1.934-1.673c-0.86,0.034-2.089,0.407-1.52,1.246
			c2.045,3.014-0.74,2.672-2.084,3.231c-2.747,1.144-3.395,3.328-3.318,6.02c0.057,1.984,0.761,4.414,2.604,4.094
			c2.46-0.428,5.832,1.95,7.472-1.813c6.303,3.621,7.569,3.189,9.042-2.939c0.68-2.829-0.028-5.039-2.964-5.708
			c-2.846-0.648-4.61,0.986-5.654,3.618C13.701,69.646,15.179,71.419,14.056,73.052z M218.21,47.37
			c1.344-2.534,0.412-4.421-1.901-5.585c-3.448-1.734-5.166,1.01-6.976,3.474c-1.857-6.236-4.612-8.045-10.147-7.05
			c-0.979,0.176-2.251,0.171-1.618,1.645c1.575,3.666,0.107,7.524,0.879,11.223c-0.105,1.357,0.736,0.853,1.394,0.708
			c1.521-0.031,3.042-0.063,4.562-0.095c0.403-0.18,0.806-0.36,1.208-0.541c1.995-1.411,3.471-3.497,6.151-0.133
			c2.191,2.749,5.799,1.296,6.412-1.965C218.186,48.491,218.198,47.931,218.21,47.37z M107.937,25.145
			c-2.349-6.876-4.266-12.534-6.216-18.182c-1.986-5.75-2.318-5.899-8.73-3.959c1.347,1.611,2.965,2.819,2.654,5.375
			c-0.662,5.438-0.44,10.987-1.168,16.412c-0.689,5.133,1.604,5.017,5.126,3.852c-4.195-6.66-0.333-13.453-0.944-20.131
			c2.75,6.126,5,12.315,7.16,18.536c0.405,1.168,0.629,2.211,2.208,2.101c1.202-0.084,1.73-0.783,2.08-1.797
			c0.487-1.413,0.983-2.823,1.517-4.218c1.888-4.93,3.793-9.852,5.692-14.777c0.939,5.636,1.044,10.967,0.906,16.291
			c-0.111,4.281,1.457,5.601,5.733,3.688c-1.07-1.755-3.012-2.416-2.888-4.935c0.287-5.801-0.055-11.645-0.384-17.457
			c-0.072-1.273,1.564-3.393-1.368-3.918c-2.8-0.502-3.329,1.442-4.023,3.305C112.985,11.513,110.697,17.702,107.937,25.145z
			 M70.349,16.049c0,4.408,0.051,7.563-0.026,10.715c-0.03,1.238-0.235,2.388,1.542,2.382c4.485-0.017,8.972,0.024,13.456-0.059
			c1.749-0.032,1.472-1.506,1.426-2.604c-0.046-1.09,0.514-2.414-0.704-3.176c-0.511-0.32-1.414-0.41-1.636,0.451
			c-1.633,6.326-6.63,1.753-9.831,3.013c-0.96,0.379-1.167-0.659-1.368-1.525c-1.516-6.558-0.043-8.519,6.499-8.526
			c1.163-0.002,2.326,0.002,3.489-0.011c1.073-0.013,2.025-0.235,1.929-1.607c-0.083-1.199-1.064-1.039-1.84-1.05
			c-2.326-0.03-4.653,0.024-6.979-0.031c-0.946-0.022-2.011,0.365-2.806-0.492c-0.639-0.688-0.321-8.188,0.339-8.658
			c1.026-0.73,9.385-0.008,9.97,0.983c0.503,0.852-0.026,2.811,1.824,2.068c1.546-0.62,0.57-2.349,0.734-3.569
			c0.161-1.196,0.071-2.335-1.679-2.32c-4.985,0.041-9.97,0.009-14.955,0.023c-1.18,0.004-2.324,0.813-1.317,1.713
			C72.914,7.788,69.157,12.92,70.349,16.049z M40.42,2.189c-0.383,0.388-0.766,0.774-1.149,1.161
			c4.093,1.326,3.233,4.195,3.254,6.75c0.044,5.316-0.028,10.633,0.048,15.948c0.015,1.006-0.709,2.234,0.831,3.008
			c6.143,3.086,16.056-1.192,18.049-7.838c1.186-3.953,0.908-7.866-0.195-11.771c-1.214-4.297-4.072-6.883-8.486-7.196
			C48.675,1.96,44.54,2.189,40.42,2.189z M158.853,65.721c0.732,1.42,3.096,2.3,0.762,4.462c-1.399,1.297-0.557,3.155,0.996,4.234
			c2.378,1.651,4.973-0.146,7.526,0.113c1.767,0.181-0.964-2.537-0.105-4.035c0.215-0.375,0.067-0.984,0.019-1.479
			c-0.412-4.188-3.733-6.386-7.285-4.244c-1.671,1.008-1.84,0.554-3.26-0.132c-2.331-1.126-5.268-0.964-7.481,0.983
			c-1.415,1.244-1.628,3.241-0.532,4.525c1.396,1.636,2.131,2.433-0.08,4.073c-1.229,0.914-0.879,2.988,0.82,3.705
			c2.361,0.996,4.907,1.143,7.041-0.614c1.513-1.245,0.918-2.526-0.26-3.839c-0.461-0.512-2.877-0.509-1.257-1.609
			C158.142,70.244,157.253,67.671,158.853,65.721z M20.363,9.001c0.714-2.438,2.7-5.227-0.699-6.741
			C14.649,0.026,8.035,2.646,5.594,7.65c-2.431,4.98-2.654,10.269-0.868,15.45c2.142,6.215,10.615,8.615,15.666,4.683
			c0.976-0.76,1.888-1.503,1.011-2.842c-1.036-1.581-1.567,0.11-2.208,0.458c-6.397,3.479-10.706,1.396-12.351-5.818
			c-0.775-3.403-0.239-6.625,0.842-9.753c1.184-3.426,3.833-5.142,7.452-5.706C19.124,3.501,18.59,7.138,20.363,9.001z
			 M27.609,61.041c1.809,2.895,1.478,5.513,1.483,8.093c0.012,6.378,0.002,6.333,6.138,5.901c1.628-0.115,3.139-0.161,2.799-2.34
			c-0.486-3.118-1.898-0.801-3.047-0.5c-1.234,0.323-2.727,0.813-3.124-1.161c-0.306-1.517,0.497-2.086,1.945-2.028
			c4.795,0.191,2.599-4.336,4.104-6.405c0.867-1.191-1.101-1.539-2.244-1.552C33.21,61.022,30.757,61.041,27.609,61.041z
			 M35.78,28.229c-3.877-1.363-3.629-3.826-3.605-6.271c0.052-5.322,0.038-10.645,0.009-15.967
			c-0.025-4.676-0.051-4.676-5.508-2.836c2.983,1.658,2.634,4.299,2.608,6.888c-0.048,4.823,0.272,9.669-0.097,14.464
			C28.845,28.958,30.373,30.197,35.78,28.229z M237.743,48.576c0-0.92,0.015-1.581-0.002-2.242c-0.084-3.35-1.592-5.371-5.154-5.094
			c-3.361,0.261-4.133,1.71-1.68,4.346c0.033,0.036-0.521,0.635-0.814,0.959c-1.444,1.593-1.588,3.302-0.014,4.78
			c2.28,2.14,5.01,0.042,7.562,0.381C239.025,51.89,237.47,49.512,237.743,48.576z M138.357,41.238
			c-0.95,0.292-3.374,1.027-2.903,1.422c3.284,2.747-0.861,4.582-0.522,6.848c0.272,1.819,1.388,2.478,3.038,2.62
			c4.904,0.425,5.602-0.433,5.465-5.481C143.343,43.283,142.232,41.26,138.357,41.238z M187.711,46.523
			c-0.255-0.706-0.468-1.484-0.811-2.202c-0.595-1.244-0.737-3.556-2.739-2.695c-2.506,1.075,0.402,2.296,0.407,3.553
			c0.01,2.703,3.636,5.166,0.617,8.039c-0.612,0.582-1.529,0.908-0.999,1.838c0.684,1.201,1.803,0.593,2.614,0.15
			c2.985-1.631,3.139-4.95,3.999-7.657c0.578-1.815,3.288-4.84,0.434-5.801C187.208,40.393,190.671,45.537,187.711,46.523z
			 M239.372,41.829c0.264,1.581,0.367,3.039,0.769,4.41c0.559,1.91-1.642,5.563,1.726,5.462c3.1-0.094-0.05-2.925,0.372-4.614
			c0.518-2.072,1.415-3.721,3.289-3.746c2.63-0.037,1.316,2.397,1.543,3.773c0.214,1.3-0.011,2.669,0.177,3.976
			c0.16,1.116,1.204,0.934,1.983,0.833c0.723-0.093,1.322-0.69,0.905-1.357c-2.226-3.559-0.068-6.003,2.881-8.736
			C247.91,41.829,243.666,41.829,239.372,41.829z M95.919,41.832c-5.163-2.675-3.188,1.184-2.507,3.895
			c0.521,2.074-1.372,5.774,1.373,5.941c2.634,0.16,0.913-3.453,1.331-5.345c0.264-1.195,0.415-2.552,1.771-2.526
			c1.68,0.03,1.004,1.677,1.302,2.685c0.559,1.893-1.657,5.604,1.991,5.37c4.08-0.262,0.385-3.433,0.758-5.267
			C102.665,43.011,101.16,40.354,95.919,41.832z M87.449,68.52c1.352-0.886,4.26-0.267,3.143-3.091
			c-0.831-2.098-2.828-1.307-4.339-1.101c-6.138,0.837,0.479,6.327-2.93,8.344c-0.437,0.259-0.093,1.607,0.76,2.063
			c0.418,0.225,0.935,0.335,1.415,0.363c2.235,0.136,4.569-0.015,5.364-2.49C91.683,70.054,89.461,69.329,87.449,68.52z
			 M253.595,68.287c2.309-0.143,4.306-0.227,3.738-2.563c-0.585-2.412-2.678-1.576-4.158-1.414c-6.475,0.71,0.48,6.4-2.994,8.413
			c-0.402,0.233-0.119,1.607,0.755,2.085c0.28,0.152,0.636,0.2,0.962,0.227c2.219,0.178,4.555,0.257,5.526-2.238
			C258.46,70.14,256.189,69.457,253.595,68.287z M119.588,70.008c-0.308-1.052-0.453-1.875-0.786-2.613
			c-0.566-1.253-0.702-3.576-2.693-2.735c-2.374,1.003,0.13,2.45,0.385,3.622c0.708,3.251,3.917,6.518-0.892,9.373
			c2.299,1.229,3.832,0.657,4.754-1.255c0.856-1.774,1.78-3.626,2.069-5.536c0.314-2.074,3.862-4.926,0.431-6.083
			c-3.337-1.127-0.533,3.589-2.532,4.609C120.181,69.463,120.07,69.599,119.588,70.008z M101.233,74.727
			c-0.617-1.813-1.367-3.465-1.069-5.327c0.596-3.729-1.413-4.709-4.675-4.334c-0.984,0.113-0.968,0.069-0.715,3.253
			c0.019,0.244-0.507,0.579-0.831,0.793c-1.635,1.081-2.177,2.537-1.201,4.255c0.952,1.676,2.722,2.332,4.271,1.383
			C98.474,73.853,99.434,75.347,101.233,74.727z M283.005,46.735c-0.256-3.291-1.63-5.524-4.844-5.43
			c-3.475,0.103-4.838,2.711-4.77,5.779c0.064,2.818,1.156,5.212,4.715,5.068C281.805,52.003,282.582,49.384,283.005,46.735z
			 M105.736,75.165c1.983-0.205,3.732-0.315,4.454-2.157c0.436-1.11,0.442-2.466-0.7-3.141c-2.086-1.234-2.7-1.855,0.367-2.294
			c0.712-0.102,0.61-1.417,0.356-2.229c-0.302-0.966-1.15-1.02-1.983-1.148c-7.011-1.086-3.76,4.588-4.896,7.383
			c-0.462,1.138-0.801,2.303,0.342,3.1C104.291,75.107,105.238,75.061,105.736,75.165z M223.22,52.144
			c1.902-0.046,3.51-0.339,4.201-2.214c0.645-1.743-0.25-2.899-1.693-3.612c-2.502-1.235-0.762-1.137,0.363-1.314
			c1.373-0.217,1.339-1.315,1.217-2.272c-0.119-0.926-0.905-1.296-1.785-1.41c-1.906-0.248-3.768,0.043-4.93,1.617
			c-0.979,1.325-0.7,2.792,0.719,3.908c0.626,0.493,1.307,1.185,0.451,1.967C218.426,51.866,220.666,52.107,223.22,52.144z
			 M172.245,75.149c0-2.514-0.258-4.326,0.096-6.011c0.217-1.031,0.444-2.776,2.129-2.729c1.907,0.054,1.709,1.653,1.756,2.966
			c0.018,0.497-0.1,1.022,0.024,1.487c0.395,1.486-1.186,4.356,1.929,4.016c3.205-0.35,0.434-2.566,0.504-3.834
			c0.129-2.309,1.156-5.654-1.973-6.45c-2.262-0.576-4.949,0.515-7.447,0.862C171.56,68.006,168.237,72.249,172.245,75.149z
			 M262.377,46.351c0.237-2.956-1.207-5.147-4.459-5.011c-3.333,0.14-4.925,2.469-4.795,5.814c0.109,2.804,1.128,4.957,4.353,4.957
			C261.066,52.112,262.472,49.991,262.377,46.351z M266.847,44.364c0-1.826,0.023-3.652-0.01-5.477
			c-0.021-1.2-0.693-1.797-1.895-1.747c-0.903,0.036-1.926,0.448-1.555,1.392c1.526,3.867,0.412,7.857,0.783,11.765
			c0.076,0.806,0.01,1.748,1.201,1.702c1.004-0.038,1.436-0.753,1.454-1.66C266.866,48.348,266.839,46.355,266.847,44.364z
			 M91.379,50.184c-1.073-3.24-0.363-6.588-0.563-9.878c-0.083-1.375-0.554-2.189-2.075-2.142c-0.979,0.03-1.895,0.536-1.489,1.401
			c1.653,3.529,0.468,7.209,0.811,10.795c0.123,1.287,0.651,1.743,1.863,1.655C91.1,51.93,91.849,51.541,91.379,50.184z
			 M271.87,45.023c0-2.272,0.02-4.099-0.006-5.925c-0.021-1.427-0.723-2.178-2.201-1.924c-1.824,0.313-1.182,1.258-0.844,2.5
			c0.423,1.56,0.137,3.295,0.371,4.925c0.353,2.458-0.888,7.15,0.93,6.973C274.005,51.192,270.761,46.916,271.87,45.023z
			 M183.897,69.756c0.004-4.971-0.168-5.637-1.774-5.319c-4.028,0.797,0.448,3.499-0.926,5.049
			c-0.245,0.277-0.151,0.994-0.013,1.446c0.418,1.369-1.182,3.98,1.332,3.916c2.213-0.057,1.088-2.627,1.372-4.104
			C183.95,70.425,183.897,70.086,183.897,69.756z"/>
		<path fill-rule="evenodd" clip-rule="evenodd" fill="#252525" d="M17.153,100.096c0.12-3.27,0.199-6.542,0.379-9.809
			c0.066-1.206-0.664-2.834,1.144-3.377c1.814-0.545,2.672,0.691,3.352,2.119c0.552,1.159,0.849,2.494,2.153,3.277
			c0.211-0.246,0.478-0.452,0.608-0.725c0.717-1.486-1.113-4.471,1.357-4.508c3.168-0.047,1.32,3.059,1.569,4.71
			c0.412,2.73,0.318,5.537,0.438,8.312c-1.333,0-2.667,0-4,0c-1.075-2.428-2.15-4.855-3.226-7.282
			c-0.258,0.101-0.516,0.202-0.774,0.304c0,2.326,0,4.652,0,6.979C19.153,100.096,18.153,100.096,17.153,100.096z"/>
		<path fill-rule="evenodd" clip-rule="evenodd" fill="#202020" d="M6.153,100.096c-3.602-3.592-1.563-8.114-1.98-12.227
			c-0.082-0.804,0.677-1.037,1.38-0.979c0.912,0.076,1.514,0.493,1.507,1.536c-0.016,2.154,0.017,4.31,0.005,6.464
			c-0.007,1.233,0.107,2.391,1.69,2.481c1.8,0.103,2.188-1.026,2.157-2.553c-0.041-1.987-0.001-3.977-0.007-5.966
			c-0.003-1.066,0.127-2.059,1.538-1.941c1.002,0.082,1.384,0.8,1.319,1.728c-0.27,3.855,1,7.93-1.609,11.456
			C10.153,100.096,8.153,100.096,6.153,100.096z"/>
		<path fill-rule="evenodd" clip-rule="evenodd" fill="#292929" d="M65.153,100.096c0.113-3.128,0.146-6.262,0.378-9.381
			c0.098-1.314-0.936-3.38,1.246-3.724c2.245-0.354,4.618-0.564,6.854,0.261c0.246,0.091,0.473,1.121,0.304,1.278
			c-0.438,0.404-1.084,0.629-1.682,0.81c-1.135,0.343-3.074-0.706-3.224,1.286c-0.171,2.283,1.882,1.074,2.953,1.387
			c0.616,0.179,1.362,0.081,1.37,1.035c0.007,0.802-0.458,1.303-1.18,1.275c-5.103-0.192-3.137,3.266-3.02,5.772
			C67.82,100.096,66.487,100.096,65.153,100.096z"/>
		<path fill-rule="evenodd" clip-rule="evenodd" fill="#161616" d="M41.153,100.096c-0.072-2.648-0.354-5.313-0.144-7.938
			c0.14-1.745-1.367-4.438,1.224-5.085c2.269-0.566,5.081-0.933,7.159,0.816c1.965,1.652,1.455,3.756,0.366,5.845
			c-1.27,2.435,0.796,4.266,1.396,6.362c-1.333,0-2.667,0-4,0c0.442-2.21-0.034-4.851-2.185-4.935
			c-2.558-0.101-0.741,3.034-1.69,4.453c-0.087,0.13-0.085,0.319-0.125,0.481C42.487,100.096,41.82,100.096,41.153,100.096z
			 M47.632,90.933c-0.363-1.734-1.51-1.887-2.706-1.833c-1.418,0.063-1.444,1.109-1.281,2.124c0.195,1.213,1.029,1.551,2.163,1.34
			C46.875,92.365,47.655,91.901,47.632,90.933z"/>
		<path fill-rule="evenodd" clip-rule="evenodd" fill="#202020" d="M33.153,100.096c-0.083-2.485-0.125-4.973-0.268-7.455
			c-0.054-0.948-0.174-1.954-0.552-2.807c-0.474-1.07-3.68,0.215-2.325-2.537c0.38-0.771,8.176-0.678,8.658,0.046
			c0.232,0.348,0.313,1.259,0.193,1.312c-5.925,2.647-2.27,7.531-2.706,11.441C35.153,100.096,34.153,100.096,33.153,100.096z"/>
		<path fill-rule="evenodd" clip-rule="evenodd" fill="#0E0E0E" d="M54.297,99.057c-0.055-3.146,0-6.299-0.203-9.436
			c-0.143-2.2,0.669-3.073,2.802-2.716c1.88,0.315,5.09-0.982,5.392,0.827c0.446,2.67-2.645,1.071-4.113,1.591
			c-0.739,0.261-1.047,0.729-1.109,1.415c-0.104,1.147,0.7,1.193,1.556,1.355c1.172,0.222,3.17-0.841,3.358,0.907
			c0.236,2.196-1.9,1.099-2.992,1.248c-1.13,0.154-1.908,0.382-1.933,1.679c-0.034,1.801,1.266,1.606,2.407,1.607
			c1.833,0.002,3.831-0.271,3.69,2.561c-0.667,0-1.333,0-2,0C59.105,98.187,56.554,99.593,54.297,99.057z"/>
		<path fill-rule="evenodd" clip-rule="evenodd" fill="#D6D6D6" d="M43.153,100.096c0.04-0.162,0.038-0.352,0.125-0.481
			c0.949-1.419-0.868-4.554,1.69-4.453c2.151,0.084,2.627,2.725,2.185,4.935C45.82,100.096,44.487,100.096,43.153,100.096z"/>
		<path fill-rule="evenodd" clip-rule="evenodd" fill="#F1F1F1" d="M20.153,100.096c0-2.326,0-4.652,0-6.979
			c0.258-0.102,0.516-0.203,0.774-0.304c1.076,2.427,2.151,4.854,3.226,7.282C22.82,100.096,21.487,100.096,20.153,100.096z"/>
		<path fill-rule="evenodd" clip-rule="evenodd" fill="#3F3F3F" d="M54.297,99.057c2.257,0.536,4.808-0.87,6.856,1.039
			c-2.333,0-4.667,0-7,0C54.201,99.749,54.249,99.403,54.297,99.057z"/>
		<path fill-rule="evenodd" clip-rule="evenodd" fill="#1C1C1C" d="M107.937,25.145c2.761-7.442,5.049-13.632,7.354-19.814
			c0.694-1.862,1.223-3.807,4.023-3.305c2.933,0.525,1.296,2.645,1.368,3.918c0.329,5.813,0.671,11.656,0.384,17.457
			c-0.124,2.519,1.818,3.18,2.888,4.935c-4.276,1.913-5.844,0.594-5.733-3.688c0.138-5.324,0.033-10.655-0.906-16.291
			c-1.899,4.926-3.804,9.848-5.692,14.777c-0.534,1.395-1.03,2.805-1.517,4.218c-0.35,1.014-0.877,1.713-2.08,1.797
			c-1.579,0.11-1.803-0.933-2.208-2.101c-2.16-6.221-4.411-12.41-7.16-18.536c0.611,6.678-3.251,13.471,0.944,20.131
			c-3.523,1.165-5.815,1.281-5.126-3.852c0.729-5.425,0.506-10.975,1.168-16.412c0.311-2.556-1.307-3.764-2.654-5.375
			c6.412-1.94,6.744-1.791,8.73,3.959C103.67,12.61,105.587,18.269,107.937,25.145z"/>
		<path fill-rule="evenodd" clip-rule="evenodd" fill="#202020" d="M70.349,16.049c-1.191-3.129,2.565-8.261-1.93-12.281
			c-1.007-0.899,0.138-1.709,1.317-1.713c4.985-0.015,9.97,0.018,14.955-0.023c1.75-0.015,1.84,1.124,1.679,2.32
			c-0.165,1.221,0.812,2.949-0.734,3.569c-1.85,0.742-1.321-1.217-1.824-2.068c-0.585-0.991-8.944-1.714-9.97-0.983
			c-0.66,0.47-0.978,7.97-0.339,8.658c0.795,0.857,1.86,0.47,2.806,0.492c2.325,0.056,4.653,0.001,6.979,0.031
			c0.775,0.011,1.756-0.149,1.84,1.05c0.096,1.372-0.856,1.595-1.929,1.607c-1.163,0.013-2.326,0.009-3.489,0.011
			c-6.542,0.008-8.015,1.969-6.499,8.526c0.2,0.866,0.407,1.904,1.368,1.525c3.2-1.26,8.197,3.313,9.831-3.013
			c0.222-0.861,1.125-0.771,1.636-0.451c1.218,0.762,0.658,2.086,0.704,3.176c0.046,1.099,0.323,2.572-1.426,2.604
			c-4.484,0.083-8.971,0.042-13.456,0.059c-1.778,0.006-1.573-1.144-1.542-2.382C70.4,23.611,70.349,20.457,70.349,16.049z"/>
		<path fill-rule="evenodd" clip-rule="evenodd" fill="#1E1E1E" d="M40.42,2.189c4.119,0,8.254-0.229,12.353,0.063
			c4.414,0.313,7.271,2.899,8.486,7.196c1.103,3.904,1.381,7.817,0.195,11.771c-1.994,6.646-11.907,10.924-18.049,7.838
			c-1.54-0.773-0.816-2.002-0.831-3.008c-0.076-5.315-0.004-10.632-0.048-15.948c-0.021-2.555,0.839-5.424-3.254-6.75
			C39.654,2.964,40.038,2.577,40.42,2.189z M45.376,15.249c0,2.653,0.144,5.316-0.04,7.957c-0.188,2.688,0.546,3.872,3.525,3.734
			c4.297-0.2,7.806-1.238,9.499-5.677c1.867-4.898,0.81-12.42-2.308-14.955c-2.86-2.326-6.43-2.177-9.487-1.28
			c-2.507,0.736-0.852,3.768-1.146,5.75C45.202,12.238,45.376,13.757,45.376,15.249z"/>
		<path fill-rule="evenodd" clip-rule="evenodd" fill="#202020" d="M158.853,65.721c-1.6,1.95-0.711,4.523-3.097,6.145
			c-1.62,1.101,0.796,1.098,1.257,1.609c1.178,1.313,1.772,2.594,0.26,3.839c-2.134,1.757-4.68,1.61-7.041,0.614
			c-1.699-0.717-2.05-2.791-0.82-3.705c2.211-1.641,1.477-2.438,0.08-4.073c-1.096-1.284-0.883-3.281,0.532-4.525
			c2.214-1.947,5.15-2.109,7.481-0.983c1.42,0.686,1.589,1.14,3.26,0.132c3.552-2.142,6.873,0.057,7.285,4.244
			c0.049,0.494,0.196,1.104-0.019,1.479c-0.858,1.498,1.872,4.216,0.105,4.035c-2.554-0.26-5.148,1.538-7.526-0.113
			c-1.553-1.079-2.396-2.938-0.996-4.234C161.948,68.021,159.585,67.141,158.853,65.721z"/>
		<path fill-rule="evenodd" clip-rule="evenodd" fill="#191919" d="M20.363,9.001c-1.773-1.863-1.24-5.5-5.226-4.879
			c-3.619,0.564-6.268,2.28-7.452,5.706c-1.081,3.128-1.617,6.35-0.842,9.753c1.645,7.214,5.953,9.298,12.351,5.818
			c0.64-0.348,1.171-2.039,2.208-0.458c0.877,1.339-0.035,2.082-1.011,2.842c-5.051,3.933-13.523,1.532-15.666-4.683
			c-1.786-5.182-1.563-10.47,0.868-15.45c2.441-5.004,9.056-7.624,14.07-5.391C23.063,3.774,21.078,6.563,20.363,9.001z"/>
		<path fill-rule="evenodd" clip-rule="evenodd" fill="#161616" d="M218.173,49.051c-0.613,3.261-4.221,4.714-6.412,1.965
			c-2.681-3.364-4.156-1.278-6.151,0.133c-0.536-0.503-1.073-1.005-1.609-1.507c0.312-0.176,0.623-0.353,0.935-0.528
			c0.347-0.477,0.693-0.952,1.04-1.429c0.05-0.66,0.108-1.32,0.147-1.98c0.164-2.773-0.601-5.521-3.727-5.207
			c-2.754,0.277-1.225,3.247-1.269,4.923c-0.046,1.761-1.647,5.328,2.89,4.2c0.129,0.69,0.257,1.38,0.385,2.069
			c-1.52,0.031-3.041,0.063-4.563,0.094c-0.465-0.236-0.929-0.472-1.393-0.707c-0.771-3.698,0.696-7.557-0.879-11.223
			c-0.633-1.474,0.639-1.469,1.618-1.645c5.535-0.995,8.29,0.813,10.147,7.05c1.81-2.464,3.527-5.208,6.976-3.474
			c2.313,1.164,3.245,3.051,1.901,5.585c-0.816-0.052-1.643-0.202-2.447-0.132c-1.07,0.095-2.322-0.504-3.145,0.571
			c-0.175,0.228,0.068,0.962,0.328,1.304c0.95,1.249,2.107,1.307,3.434,0.503C216.901,49.301,217.571,49.232,218.173,49.051z"/>
		<path fill-rule="evenodd" clip-rule="evenodd" fill="#202020" d="M27.609,61.041c3.148,0,5.602-0.019,8.054,0.008
			c1.143,0.013,3.111,0.36,2.244,1.552c-1.506,2.069,0.69,6.597-4.104,6.405c-1.449-0.058-2.251,0.512-1.945,2.028
			c0.397,1.974,1.89,1.484,3.124,1.161c1.149-0.301,2.562-2.618,3.047,0.5c0.34,2.179-1.171,2.225-2.799,2.34
			c-6.135,0.432-6.125,0.477-6.138-5.901C29.087,66.554,29.418,63.936,27.609,61.041z M35.947,65.47
			c-0.247-1.421-1.004-2.058-2.368-2.071c-1.334-0.014-1.668,0.79-1.625,1.87c0.049,1.233,0.857,1.62,1.973,1.542
			C34.889,66.743,35.864,66.683,35.947,65.47z"/>
		<path fill-rule="evenodd" clip-rule="evenodd" fill="#161616" d="M35.78,28.229c-5.407,1.968-6.936,0.729-6.593-3.723
			c0.369-4.795,0.049-9.641,0.097-14.464c0.026-2.589,0.375-5.229-2.608-6.888c5.457-1.84,5.482-1.84,5.508,2.836
			c0.029,5.322,0.042,10.645-0.009,15.967C32.151,24.403,31.903,26.866,35.78,28.229z"/>
		<path fill-rule="evenodd" clip-rule="evenodd" fill="#252525" d="M72.869,50.041c-1.765,3.634-5.085,1.492-7.611,1.769
			c-1.629,0.178-2.336-1.986-2.376-3.823c-0.057-2.655,0.367-4.952,3.152-6.183c1.314-0.58,4.252-0.12,2.267-3.251
			c-0.599-0.944,0.505-1.313,1.403-1.365c1.155-0.066,1.986,0.327,2.021,1.595c0.062,2.331-0.089,4.677,0.122,6.992
			c0.135,1.481-1.023,3.406,1.15,4.381C73,50.155,72.869,50.041,72.869,50.041z M69.194,46.384
			c-0.181-0.955,0.728-2.673-1.006-2.709c-1.868-0.037-2.879,1.457-2.941,3.328c-0.045,1.351,0.132,2.994,1.89,2.87
			C69.042,49.739,69.038,47.92,69.194,46.384z"/>
		<path fill-rule="evenodd" clip-rule="evenodd" fill="#252525" d="M237.743,48.576c-0.273,0.936,1.282,3.313-0.103,3.13
			c-2.552-0.339-5.281,1.759-7.562-0.381c-1.574-1.479-1.431-3.188,0.014-4.78c0.294-0.324,0.848-0.923,0.814-0.959
			c-2.453-2.636-1.682-4.085,1.68-4.346c3.563-0.277,5.07,1.744,5.154,5.094C237.758,46.995,237.743,47.656,237.743,48.576z"/>
		<path fill-rule="evenodd" clip-rule="evenodd" fill="#252525" d="M13.949,72.957c-1.633,3.769-5.004,1.391-7.465,1.818
			c-1.844,0.32-2.548-2.109-2.604-4.094c-0.077-2.691,0.571-4.876,3.318-6.02c1.344-0.56,4.129-0.218,2.084-3.231
			c-0.569-0.839,0.66-1.212,1.52-1.246c1.171-0.046,1.911,0.439,1.934,1.673c0.043,2.314-0.094,4.642,0.109,6.939
			c0.128,1.448-1.041,3.382,1.211,4.255L13.949,72.957z M10.243,68.896c-0.188-0.888,0.52-2.59-1.271-2.414
			c-1.829,0.18-2.686,1.717-2.727,3.509c-0.03,1.319,0.265,2.975,1.866,2.812C10.164,72.594,10.112,70.606,10.243,68.896z"/>
		<path fill-rule="evenodd" clip-rule="evenodd" fill="#161616" d="M140.301,66.371c0.073,0.964,0.292,1.943,0.193,2.89
			c-0.379,3.6-2.265,5.856-6.05,5.8c-3.436-0.051-4.933-2.386-5.22-5.472c-0.337-3.626,0.079-7.254,4.295-8.342
			c3.121-0.806,5.971-0.031,6.609,3.91C140.186,65.562,140.244,65.967,140.301,66.371z M131.956,68.29
			c0.207,1.879,0.059,4.542,3.032,4.43c2.377-0.091,2.894-2.441,2.944-4.455c0.055-2.171-0.256-4.813-2.894-4.922
			C132.25,63.228,132.148,65.897,131.956,68.29z"/>
		<path fill-rule="evenodd" clip-rule="evenodd" fill="#2C2C2C" d="M72.113,65.233c1.758,2.694,2.641-0.454,3.912-0.72
			c1.756-0.365,3.297-0.522,4.643,0.676c1.305,1.162,2.099,2.818,1.31,4.445c-1.048,2.16,0.739,6.773-4.629,5.509
			c-4.448-1.049-4.631-4.094-4.035-7.639c0.179-1.067,0.499-2.059-1.218-1.625C72.038,65.662,72.044,65.446,72.113,65.233z"/>
		<path fill-rule="evenodd" clip-rule="evenodd" fill="#252525" d="M48.016,44.192c-3.847,0.475-4.303,1.067-3.612,5.259
			c0.143,0.865,1.319,1.865-0.201,2.313c-1.438,0.423-1.967-0.788-2.079-1.992c-0.107-1.155,0.104-2.35-0.077-3.486
			c-0.162-1.02,0.999-2.94-1.364-2.764c-1.709,0.129-2.021,1.49-1.872,2.944c0.101,0.979,0.262,1.956,0.468,2.919
			c0.199,0.93,3.427,0.856,1.055,2.506c-1.327,0.923-3.234,0.097-3.621-1.544c-0.658-2.791-0.96-5.697-1.019-8.563
			c-0.008-0.409,0.664-6.236,3.557-0.939c0.871,1.594,3.323,1.257,5.113,1.109c1.903-0.157,3.276,0.136,3.56,2.307L48.016,44.192z"
			/>
		<path fill-rule="evenodd" clip-rule="evenodd" fill="#191919" d="M138.357,41.238c3.875,0.021,4.986,2.045,5.078,5.408
			c0.137,5.049-0.561,5.906-5.465,5.481c-1.65-0.143-2.766-0.801-3.038-2.62c-0.339-2.266,3.806-4.101,0.522-6.848
			C134.983,42.266,137.407,41.53,138.357,41.238z"/>
		<path fill-rule="evenodd" clip-rule="evenodd" fill="#202020" d="M66.215,65.799c-2.484,0.565-0.715,2.405-0.898,3.548
			c-0.37,2.307-0.977,4.119-3.308,5.092c-1.215,0.508-3.553,0.168-2.342,2.962c0.44,1.016-1.083,0.833-1.795,0.874
			c-1.313,0.075-1.552-0.79-1.641-1.92c-0.271-3.436-0.356-6.986-0.255-10.305c0.062-2.022,4.433-1.761,7.09-1.414
			c1.078,0.141,1.588,2.71,3.144,0.73L66.215,65.799z M58.791,69.998c-0.01,1.086-0.763,2.813,1.358,2.799
			c1.735-0.012,2.344-1.601,2.68-3.068c0.323-1.411-0.145-3.022-1.49-3.224C58.988,66.154,59.176,68.355,58.791,69.998z"/>
		<path fill-rule="evenodd" clip-rule="evenodd" fill="#252525" d="M13.725,48.893c-1.378,3.473-4.058,4.414-7.13,2.414
			c-3.439-2.239-3.103-5.693-2.279-8.901c0.851-3.313,3.5-4.572,6.878-4.374c1.277,0.075,2.336,0.378,2.523,1.793
			c0.079,0.595,0.004,1.47-0.37,1.813c-0.978,0.897-1.643,0.157-2.348-0.667c-1.127-1.315-2.211-0.229-2.925,0.495
			c-1.698,1.72-1.53,3.916-0.923,6.036c0.463,1.616,1.656,2.44,3.376,2.192c1.119-0.162,2.214-0.483,3.33-0.727
			C13.867,48.975,13.725,48.893,13.725,48.893z"/>
		<path fill-rule="evenodd" clip-rule="evenodd" fill="#313131" d="M228.463,66.191c2.009-3.129,5.196-1.779,7.728-1.56
			c2.059,0.179,2.002,2.705,1.92,4.581c-0.021,0.498,0.213,1.19-0.035,1.466c-1.275,1.417,3.259,3.688-0.289,4.187
			c-3.702,0.52-1.836-2.953-2.308-4.707c-0.348-1.294,0.616-3.589-1.649-3.417c-1.767,0.134-1.613,2.201-1.586,3.712
			c0.012,0.666,0.08,1.344-0.019,1.995c-0.151,1,0.525,2.642-1.429,2.481c-1.301-0.106-1.156-1.329-1.345-2.3
			c-0.421-2.167,1.097-4.67-1.116-6.522L228.463,66.191z"/>
		<path fill-rule="evenodd" clip-rule="evenodd" fill="#2C2C2C" d="M191.624,71.616c1.137-0.317,2.575,0.978,3.469-0.648
			c0.021,0.706,0.043,1.411,0.064,2.116c-1.702,0.484-2.621,2.779-4.92,1.984c-1.455-0.503-3.563,0.925-4.467-1.027
			c-0.732-1.583,0.855-2.699,1.716-3.863c1.007-1.362,2.022-2.258-0.938-2.49c-1.612-0.127-1.516-2.356-0.12-2.919
			c1.966-0.791,4.689-1.116,6.246,0.081c2.055,1.581-0.404,3.084-1.313,4.5c-0.269,0.42-0.539,0.838-0.809,1.258
			C190.208,71.689,190.413,72.186,191.624,71.616z"/>
		<path fill-rule="evenodd" clip-rule="evenodd" fill="#252525" d="M187.711,46.523c2.96-0.986-0.503-6.131,3.522-4.775
			c2.854,0.961,0.145,3.985-0.434,5.801c-0.86,2.707-1.014,6.026-3.999,7.657c-0.812,0.442-1.931,1.051-2.614-0.15
			c-0.53-0.93,0.387-1.256,0.999-1.838c3.019-2.873-0.607-5.336-0.617-8.039c-0.005-1.257-2.913-2.478-0.407-3.553
			c2.002-0.86,2.145,1.451,2.739,2.695C187.243,45.039,187.456,45.817,187.711,46.523z"/>
		<path fill-rule="evenodd" clip-rule="evenodd" fill="#191919" d="M239.372,41.829c4.294,0,8.538,0,13.645,0
			c-2.949,2.733-5.106,5.178-2.881,8.736c0.417,0.667-0.183,1.265-0.905,1.357c-0.779,0.101-1.823,0.283-1.983-0.833
			c-0.188-1.307,0.037-2.676-0.177-3.976c-0.227-1.376,1.087-3.811-1.543-3.773c-1.874,0.025-2.771,1.674-3.289,3.746
			c-0.422,1.689,2.728,4.521-0.372,4.614c-3.367,0.102-1.167-3.552-1.726-5.462C239.739,44.868,239.636,43.41,239.372,41.829z"/>
		<path fill-rule="evenodd" clip-rule="evenodd" fill="#3F3F3F" d="M113.956,49.983c0.37,1.585-0.434,2.081-1.868,2.084
			c-1.2,0.002-1.875-0.485-1.89-1.732c-0.014-1.165,0.067-2.339-0.062-3.49c-0.13-1.161,0.683-3.15-1.402-3.025
			c-1.578,0.096-1.451,1.852-1.635,3.197c-0.226,1.653,1.021,4.652-1.086,4.684c-2.928,0.045-1.994-3.879-1.414-4.617
			c1.481-1.889-4.438-5.088,1.012-5.513c7.033-0.548,7.208-0.244,7.545,5.984c0.05,0.91-0.39,2.049,0.92,2.52L113.956,49.983z"/>
		<path fill-rule="evenodd" clip-rule="evenodd" fill="#3F3F3F" d="M95.919,41.832c5.24-1.479,6.746,1.179,6.019,4.753
			c-0.373,1.834,3.322,5.005-0.758,5.267c-3.648,0.233-1.432-3.478-1.991-5.37c-0.298-1.008,0.377-2.654-1.302-2.685
			c-1.356-0.025-1.508,1.331-1.771,2.526c-0.417,1.892,1.303,5.505-1.331,5.345c-2.745-0.167-0.852-3.867-1.373-5.941
			C92.731,43.016,90.756,39.157,95.919,41.832z"/>
		<path fill-rule="evenodd" clip-rule="evenodd" fill="#292929" d="M168.493,43.188c2.018-2.991,5.131-1.461,7.614-1.436
			c2.167,0.021,2.027,2.59,1.983,4.434c-0.016,0.662,0.26,1.5-0.047,1.953c-0.889,1.311,3.156,3.169-0.201,3.743
			c-3.445,0.59-1.961-2.521-2.349-4.167c-0.337-1.43,0.861-3.985-1.584-3.892c-1.942,0.074-1.694,2.457-1.683,4.108
			c0.006,0.827,0.035,1.659-0.043,2.479c-0.058,0.6,0.056,1.398-0.892,1.483c-1.146,0.103-1.19-0.721-1.403-1.55
			c-0.611-2.391,1.469-5.352-1.52-7.233L168.493,43.188z"/>
		<path fill-rule="evenodd" clip-rule="evenodd" fill="#252525" d="M14.056,73.052c1.123-1.633-0.355-3.406,0.325-5.119
			c1.044-2.632,2.808-4.267,5.654-3.618c2.936,0.669,3.644,2.879,2.964,5.708c-1.473,6.129-2.739,6.561-9.046,2.938
			C13.949,72.957,14.056,73.052,14.056,73.052z M21.823,70.387c-1.729,0.2-3.481-1.142-4.54,0.866
			c-0.13,0.247,0.539,1.194,1.026,1.437C20.051,73.553,21.086,72.734,21.823,70.387z"/>
		<path fill-rule="evenodd" clip-rule="evenodd" fill="#292929" d="M87.449,68.52c2.012,0.81,4.234,1.534,3.414,4.089
			c-0.795,2.476-3.129,2.626-5.364,2.49c-0.48-0.028-0.996-0.139-1.415-0.363c-0.853-0.456-1.197-1.805-0.76-2.063
			c3.408-2.017-3.208-7.507,2.93-8.344c1.511-0.206,3.508-0.997,4.339,1.101C91.709,68.253,88.801,67.634,87.449,68.52z"/>
		<path fill-rule="evenodd" clip-rule="evenodd" fill="#202020" d="M253.595,68.287c2.595,1.17,4.865,1.853,3.829,4.509
			c-0.972,2.495-3.308,2.416-5.526,2.238c-0.326-0.026-0.682-0.074-0.962-0.227c-0.874-0.478-1.157-1.852-0.755-2.085
			c3.475-2.013-3.48-7.703,2.994-8.413c1.48-0.162,3.573-0.998,4.158,1.414C257.9,68.061,255.903,68.145,253.595,68.287z"/>
		<path fill-rule="evenodd" clip-rule="evenodd" fill="#252525" d="M114.076,50.074c0.262-0.173,0.75-0.342,0.752-0.519
			c0.117-8.355,2.042-9.763,9.294-6.753l-0.089-0.147c-0.183,0.268-0.575,0.597-0.517,0.795c0.875,3.024,1.117,5.892-1.825,8.023
			c-3.087,2.238-5.212-0.673-7.732-1.489C113.956,49.983,114.076,50.074,114.076,50.074z M119.402,50
			c1.835-0.501,2.047-2.013,2.012-3.517c-0.032-1.333-0.359-2.968-2.015-2.878c-2.167,0.118-2.319,1.973-2.232,3.705
			C117.238,48.734,117.627,49.945,119.402,50z"/>
		<path fill-rule="evenodd" clip-rule="evenodd" fill="#202020" d="M119.588,70.008c0.482-0.409,0.593-0.545,0.736-0.618
			c1.999-1.021-0.805-5.736,2.532-4.609c3.431,1.157-0.117,4.009-0.431,6.083c-0.289,1.91-1.213,3.762-2.069,5.536
			c-0.923,1.912-2.455,2.483-4.754,1.255c4.809-2.855,1.601-6.122,0.892-9.373c-0.255-1.172-2.759-2.619-0.385-3.622
			c1.992-0.841,2.127,1.482,2.693,2.735C119.135,68.133,119.28,68.956,119.588,70.008z"/>
		<path fill-rule="evenodd" clip-rule="evenodd" fill="#1C1C1C" d="M82.045,49.293c-0.495,4.69-3.733,2.563-6.129,2.433
			c-1.246-0.067-1.368-2.295-3.043-1.685c-0.004,0,0.127,0.114,0.124,0.114c0.942-0.828,0.25-1.836,0.238-2.737
			c-0.044-3.392,1.206-6.04,4.829-6.076c3.595-0.036,4.502,2.616,4.116,5.813c-1.918,0.791-5.843-1.175-5.664,1.348
			C76.774,52.142,80.166,48.491,82.045,49.293z"/>
		<path fill-rule="evenodd" clip-rule="evenodd" fill="#161616" d="M23.119,49.163c-0.439,5.354-3.903,2.449-6.322,2.284
			c-1.575-0.107-1.227-2.656-3.063-2.552c-0.009-0.003,0.133,0.079,0.124,0.072c1.119-0.65,0.641-1.752,0.713-2.67
			c0.247-3.135,1.913-5.19,5.028-4.957c3.347,0.251,4.241,2.712,3.575,5.8c-0.818,0.024-1.661-0.066-2.449,0.101
			c-1.152,0.244-2.679-0.803-3.399,0.856c-0.126,0.293,0.211,0.947,0.519,1.238c1.095,1.03,2.234,1.084,3.495,0.121
			C21.762,49.136,22.517,49.249,23.119,49.163z"/>
		<path fill-rule="evenodd" clip-rule="evenodd" fill="#0E0E0E" d="M101.233,74.727c-1.799,0.62-2.759-0.874-4.221,0.022
			c-1.549,0.949-3.318,0.293-4.271-1.383c-0.976-1.718-0.434-3.174,1.201-4.255c0.324-0.214,0.85-0.549,0.831-0.793
			c-0.253-3.184-0.269-3.14,0.715-3.253c3.262-0.375,5.271,0.605,4.675,4.334C99.866,71.262,100.616,72.914,101.233,74.727z"/>
		<path fill-rule="evenodd" clip-rule="evenodd" fill="#252525" d="M168.37,43.112c-1.73,1.18,0.102,2.578-0.229,3.936
			c-0.584,2.408-1.295,4.529-4.037,5.032c-1.895,0.348-3.829,0.114-4.756-1.817c-1.214-2.529-1.354-5.177,0.631-7.468
			c1.614-1.864,3.537-1.993,5.791-0.96c0.921,0.421,1.146,2.312,2.717,1.353C168.493,43.188,168.37,43.112,168.37,43.112z
			 M163.145,50.029c1.924-0.26,2.218-1.756,2.225-3.286c0.007-1.52-0.229-3.255-2.249-3.148c-1.572,0.084-2.027,1.521-2.005,2.951
			C161.14,48.034,161.058,49.641,163.145,50.029z"/>
		<path fill-rule="evenodd" clip-rule="evenodd" fill="#252525" d="M47.923,44.261c1.435,0.535,1.41-0.979,2.051-1.519
			c2.039-1.718,4.26-2.197,6.318-0.438c2.119,1.81,2.249,4.304,1.262,6.852c-0.918,2.371-2.737,3.193-5.147,2.98
			c-3.043-0.27-3.458-2.55-3.927-4.935c-0.198-1.007,1.117-2.251-0.46-3.014C48.016,44.192,47.923,44.261,47.923,44.261z
			 M55.405,46.807c-0.122-1.505-0.241-3.3-2.206-3.195c-1.836,0.099-2.129,1.797-2.079,3.379c0.043,1.361,0.159,2.896,1.912,2.963
			C55.071,50.03,55.205,48.319,55.405,46.807z"/>
		<path fill-rule="evenodd" clip-rule="evenodd" fill="#191919" d="M248.337,72.055c0.496,3.164-1.702,3.126-3.756,3.043
			c-2.672-0.108-4.378-1.43-4.608-4.251c-0.214-2.612-0.04-5.095,2.847-6.267c2.085-0.847,4.043-0.503,5.211,1.495
			c0.641,1.095,0.693,2.533,1.012,3.816c-2.172,0.225-4.346,0.448-6.609,0.683C243.794,75.271,246.483,71.373,248.337,72.055z"/>
		<path fill-rule="evenodd" clip-rule="evenodd" fill="#161616" d="M195.157,73.084c-0.021-0.705-0.043-1.41-0.064-2.116
			c-0.548-1.35,4.229-2.137,0.365-4.03c-0.711-0.349-0.205-2.23,1.335-2.511c2.368-0.432,4.913-0.635,6.075,1.935
			c1.057,2.34-0.365,5.236,1.16,7.645c0.061,0.094-0.768,0.915-0.809,0.886C200.787,73.112,196.98,77.406,195.157,73.084z
			 M200.724,66.902c-1.64,1.685-2.182,3.304,0,5.548C200.724,70.08,200.724,68.491,200.724,66.902z"/>
		<path fill-rule="evenodd" clip-rule="evenodd" fill="#252525" d="M228.335,66.107c-1.697,1.009-0.033,2.27-0.221,3.431
			c-0.424,2.634-1.223,4.875-4.129,5.475c-2.127,0.438-4.043-0.153-4.903-2.323c-0.958-2.415-1.038-4.958,0.845-6.979
			c1.793-1.923,3.976-2.052,6.287-0.646c0.695,0.423,0.89,1.994,2.244,1.126C228.463,66.191,228.335,66.107,228.335,66.107z
			 M222.911,72.971c1.584-0.108,2.273-1.101,2.313-2.558c0.042-1.575,0.415-3.624-1.753-3.922c-1.818-0.25-2.35,1.384-2.375,2.964
			C221.073,70.913,221.021,72.449,222.911,72.971z"/>
		<path fill-rule="evenodd" clip-rule="evenodd" fill="#202020" d="M283.005,46.735c-0.423,2.648-1.2,5.268-4.898,5.418
			c-3.559,0.144-4.65-2.25-4.715-5.068c-0.068-3.068,1.295-5.677,4.77-5.779C281.375,41.211,282.749,43.444,283.005,46.735z
			 M280.254,46.92c-0.021-1.737-0.185-3.423-2.114-3.339c-1.793,0.079-2.146,1.674-2.086,3.248c0.059,1.482,0.055,3.193,2.12,3.115
			C280.137,49.869,280.187,48.194,280.254,46.92z"/>
		<path fill-rule="evenodd" clip-rule="evenodd" fill="#1E1E1E" d="M105.736,75.165c-0.499-0.104-1.445-0.058-2.061-0.486
			c-1.143-0.797-0.804-1.962-0.342-3.1c1.136-2.795-2.115-8.469,4.896-7.383c0.833,0.129,1.682,0.183,1.983,1.148
			c0.254,0.812,0.356,2.127-0.356,2.229c-3.066,0.438-2.453,1.06-0.367,2.294c1.142,0.675,1.135,2.03,0.7,3.141
			C109.468,74.85,107.72,74.96,105.736,75.165z"/>
		<path fill-rule="evenodd" clip-rule="evenodd" fill="#191919" d="M223.22,52.144c-2.554-0.036-4.794-0.277-1.457-3.331
			c0.855-0.782,0.175-1.474-0.451-1.967c-1.419-1.116-1.697-2.583-0.719-3.908c1.162-1.574,3.023-1.865,4.93-1.617
			c0.88,0.114,1.666,0.484,1.785,1.41c0.122,0.957,0.156,2.056-1.217,2.272c-1.125,0.178-2.865,0.079-0.363,1.314
			c1.443,0.713,2.338,1.869,1.693,3.612C226.729,51.805,225.122,52.098,223.22,52.144z"/>
		<path fill-rule="evenodd" clip-rule="evenodd" fill="#252525" d="M172.245,75.149c-4.008-2.9-0.686-7.144-2.982-9.692
			c2.498-0.348,5.186-1.438,7.447-0.862c3.129,0.796,2.102,4.142,1.973,6.45c-0.07,1.268,2.701,3.484-0.504,3.834
			c-3.114,0.341-1.534-2.529-1.929-4.016c-0.124-0.465-0.007-0.99-0.024-1.487c-0.047-1.313,0.151-2.912-1.756-2.966
			c-1.685-0.048-1.912,1.697-2.129,2.729C171.987,70.823,172.245,72.636,172.245,75.149z"/>
		<path fill-rule="evenodd" clip-rule="evenodd" fill="#2C2C2C" d="M124.122,42.803c5.295-3.349,2.915,2.925,5.139,3.84
			c1.414-0.726,1.101-2.199,0.968-3.592c-0.18-1.898,1.139-1.67,2.267-1.544c1.413,0.156,1.416,1.036,0.922,2.106
			c-0.136,0.293-0.094,0.677-0.252,0.949c-1.407,2.425-0.66,6.967-3.918,7.163c-3.471,0.209-2.316-4.361-3.706-6.559
			c-0.519-0.821-1.003-1.663-1.506-2.504C124.033,42.655,124.122,42.803,124.122,42.803z"/>
		<path fill-rule="evenodd" clip-rule="evenodd" fill="#191919" d="M262.377,46.351c0.095,3.641-1.311,5.762-4.901,5.761
			c-3.225,0-4.243-2.153-4.353-4.957c-0.13-3.346,1.462-5.675,4.795-5.814C261.17,41.203,262.614,43.395,262.377,46.351z
			 M257.808,50.105c1.662-0.271,2.232-1.541,2.301-3.145c0.067-1.553-0.13-3.272-1.994-3.431c-1.897-0.161-2.398,1.475-2.393,3.056
			C255.727,48.019,255.577,49.668,257.808,50.105z"/>
		<path fill-rule="evenodd" clip-rule="evenodd" fill="#0E0E0E" d="M48.337,67.43c-0.555,2.449,0.479,5.147-1.107,8.133
			c-1.961-2.304-1.005-4.516-1.278-6.46c-0.161-1.147-0.218-2.55-1.663-2.579c-1.442-0.029-1.647,1.413-1.863,2.53
			c-0.376,1.944,0.495,4.154-1.232,6.521c-1.503-2.104-0.929-3.931-1.051-5.598c-0.117-1.604,0.359-3.292-2.205-5.36
			c4.363,0.599,7.285-1.252,10.184,0.677C48.193,66.006,48.265,66.718,48.337,67.43z"/>
		<path fill-rule="evenodd" clip-rule="evenodd" fill="#252525" d="M211.052,67.145c-3.117-1.416-3.596,0.944-3.521,2.895
			c0.134,3.572,2.836,3.191,6.288,1.655c-2.077,4.045-4.348,3.916-6.437,2.869c-2.937-1.473-2.932-4.39-2.072-6.965
			c1.066-3.194,3.623-4.059,6.803-2.964C212.112,65.621,212.219,66.652,211.052,67.145z"/>
		<path fill-rule="evenodd" clip-rule="evenodd" fill="#252525" d="M151.051,44.151c-3.011-1.094-3.579,1.101-3.526,3.073
			c0.104,3.864,3.273,2.382,5.855,2.276c-1.48,3.413-3.811,3.081-5.866,2.149c-3.05-1.382-2.969-4.356-2.114-6.863
			c1.021-2.998,3.363-4.397,6.666-3.008C152.142,42.747,152.273,43.739,151.051,44.151z"/>
		<path fill-rule="evenodd" clip-rule="evenodd" fill="#1C1C1C" d="M66.215,65.799l-0.006-0.433
			c1.949-0.898,3.908-1.354,5.904-0.133c-0.069,0.213-0.075,0.429-0.019,0.646c-2.458,1.42-3.072,3.625-2.663,6.265
			c0.163,1.052,1.912,2.594-0.755,2.804c-2.181,0.173-1.647-1.562-1.756-2.787C66.732,70.035,67.403,67.814,66.215,65.799z"/>
		<path fill-rule="evenodd" clip-rule="evenodd" fill="#3F3F3F" d="M266.843,44.364c-0.004,1.991,0.023,3.983-0.017,5.975
			c-0.019,0.907-0.45,1.622-1.454,1.66c-1.191,0.046-1.125-0.896-1.201-1.702c-0.371-3.907,0.743-7.897-0.783-11.765
			c-0.371-0.943,0.651-1.355,1.555-1.392c1.201-0.05,1.873,0.547,1.895,1.747C266.87,40.712,266.847,42.538,266.843,44.364z"/>
		<path fill-rule="evenodd" clip-rule="evenodd" fill="#313131" d="M140.301,66.371c-0.058-0.404-0.115-0.81-0.173-1.214
			c0.894-0.224,2.029-0.904,2.634-0.584c1.68,0.887,3.854-1.377,4.897,0.492c1.158,2.073-2.131,1.37-2.4,2.864
			c-0.294,1.624-0.786,3.278-0.065,4.845c0.507,1.101,0.639,1.876-0.713,2.172c-1.334,0.293-2.262-0.14-2.264-1.712
			c-0.002-1.646,0.008-3.293-0.033-4.938C142.154,67.104,142.118,65.848,140.301,66.371z"/>
		<path fill-rule="evenodd" clip-rule="evenodd" fill="#292929" d="M91.379,50.184c0.47,1.357-0.279,1.746-1.454,1.832
			c-1.212,0.088-1.74-0.368-1.863-1.655c-0.343-3.586,0.843-7.266-0.811-10.795c-0.405-0.865,0.51-1.371,1.489-1.401
			c1.521-0.048,1.991,0.767,2.075,2.142C91.016,43.596,90.306,46.943,91.379,50.184z"/>
		<path fill-rule="evenodd" clip-rule="evenodd" fill="#3F3F3F" d="M271.87,45.023c-1.109,1.893,2.135,6.169-1.75,6.549
			c-1.817,0.178-0.577-4.515-0.93-6.973c-0.234-1.63,0.052-3.365-0.371-4.925c-0.338-1.242-0.98-2.187,0.844-2.5
			c1.479-0.254,2.181,0.497,2.201,1.924C271.89,40.925,271.87,42.751,271.87,45.023z"/>
		<path fill-rule="evenodd" clip-rule="evenodd" fill="#3F3F3F" d="M151.051,44.151c1.223-0.412,1.091-1.404,1.015-2.372
			c1.517,0.513,3.439-2.148,4.427-0.005c1.39,3.017,0.799,6.401,0.256,9.629c-0.043,0.257-0.771,0.544-1.19,0.559
			c-0.725,0.024-1.231-0.434-1.25-1.196c-0.021-0.82,0.066-1.643,0.098-2.465C154.495,45.943,154.882,43.342,151.051,44.151z"/>
		<path fill-rule="evenodd" clip-rule="evenodd" fill="#313131" d="M48.337,67.43c-0.072-0.712-0.144-1.424-0.216-2.137
			c4.432-1.787,5.739-1.048,5.979,3.41c0.062,1.152-0.081,2.329,0.101,3.457c0.176,1.093,1.842,2.463-0.652,2.827
			c-1.925,0.28-2.069-1.116-2.083-2.531c-0.013-1.319,0.049-2.649-0.092-3.956C51.121,66.154,49.832,66.424,48.337,67.43z"/>
		<path fill-rule="evenodd" clip-rule="evenodd" fill="#313131" d="M211.052,67.145c1.167-0.492,1.061-1.523,1.061-2.51
			c1.598,0.438,4.135-1.484,4.732,0.967c0.68,2.796,0.612,5.855-0.116,8.757c-0.071,0.287-0.759,0.553-1.181,0.589
			c-0.746,0.064-1.208-0.424-1.262-1.161c-0.072-0.981-0.282-2.025-0.047-2.944C214.979,67.963,213.505,67.174,211.052,67.145z"/>
		<path fill-rule="evenodd" clip-rule="evenodd" fill="#292929" d="M28.163,42.117c4.165-2.239,5.784,0.204,5.457,3.691
			c-0.191,2.034,2.655,5.646-0.636,5.91c-3.875,0.311-1.183-3.75-1.811-5.759c-0.358-1.147-0.398-2.216-1.681-2.677
			C29.049,42.895,28.606,42.506,28.163,42.117z"/>
		<path fill-rule="evenodd" clip-rule="evenodd" fill="#3F3F3F" d="M183.897,69.756c0,0.33,0.053,0.669-0.009,0.987
			c-0.284,1.478,0.841,4.048-1.372,4.104c-2.514,0.064-0.914-2.547-1.332-3.916c-0.139-0.452-0.232-1.169,0.013-1.446
			c1.374-1.55-3.103-4.252,0.926-5.049C183.729,64.119,183.901,64.785,183.897,69.756z"/>
		<path fill-rule="evenodd" clip-rule="evenodd" fill="#3F3F3F" d="M28.163,42.117c0.443,0.389,0.886,0.777,1.33,1.166
			c-2.2,1.72-1.442,4.182-1.602,6.41c-0.072,0.994-0.063,2.178-1.35,2.245c-1.398,0.073-1.253-1.174-1.375-2.128
			c-0.289-2.237,0.365-4.473-0.69-6.771C23.717,41.389,24.229,41.161,28.163,42.117z"/>
		<path fill-rule="evenodd" clip-rule="evenodd" fill="#D6D6D6" d="M248.337,72.055c-1.854-0.682-4.543,3.217-5.904-1.48
			c2.264-0.234,4.438-0.458,6.609-0.683C249.159,70.728,249.089,71.502,248.337,72.055z"/>
		<path fill-rule="evenodd" clip-rule="evenodd" fill="#D6D6D6" d="M218.173,49.051c-0.602,0.182-1.271,0.25-1.793,0.565
			c-1.326,0.804-2.483,0.746-3.434-0.503c-0.26-0.342-0.503-1.076-0.328-1.304c0.822-1.075,2.074-0.477,3.145-0.571
			c0.805-0.07,1.631,0.08,2.447,0.132C218.198,47.931,218.186,48.491,218.173,49.051z"/>
		<path fill-rule="evenodd" clip-rule="evenodd" fill="#D6D6D6" d="M82.045,49.293c-1.879-0.802-5.271,2.849-5.529-0.791
			c-0.179-2.522,3.746-0.557,5.664-1.348C82.135,47.867,82.09,48.58,82.045,49.293z"/>
		<path fill-rule="evenodd" clip-rule="evenodd" fill="#D6D6D6" d="M23.119,49.163c-0.603,0.086-1.357-0.027-1.779,0.294
			c-1.261,0.963-2.4,0.909-3.495-0.121c-0.308-0.291-0.646-0.945-0.519-1.238c0.72-1.659,2.247-0.612,3.399-0.856
			c0.788-0.167,1.63-0.076,2.449-0.101C23.155,47.814,23.137,48.489,23.119,49.163z"/>
		<path fill-rule="evenodd" clip-rule="evenodd" fill="#252525" d="M198.446,51.076c0.464,0.235,0.928,0.471,1.393,0.707
			C199.183,51.929,198.341,52.434,198.446,51.076z"/>
		<path fill-rule="evenodd" clip-rule="evenodd" fill="#252525" d="M204.401,51.689c-0.128-0.689-0.256-1.379-0.385-2.069
			c0,0.001-0.017,0.021-0.017,0.021c0.536,0.502,1.073,1.004,1.609,1.507C205.207,51.329,204.805,51.51,204.401,51.689z"/>
		<path fill-rule="evenodd" clip-rule="evenodd" fill="#D6D6D6" d="M47.632,90.933c0.023,0.969-0.756,1.433-1.825,1.631
			c-1.134,0.211-1.968-0.127-2.163-1.34c-0.163-1.015-0.137-2.062,1.281-2.124C46.122,89.046,47.269,89.198,47.632,90.933z"/>
		<path fill-rule="evenodd" clip-rule="evenodd" fill="#F5F5F5" d="M45.376,15.249c0-1.492-0.174-3.011,0.042-4.471
			c0.294-1.982-1.361-5.014,1.146-5.75c3.057-0.896,6.627-1.046,9.487,1.28c3.117,2.535,4.175,10.057,2.308,14.955
			c-1.692,4.438-5.202,5.477-9.499,5.677c-2.979,0.138-3.712-1.047-3.525-3.734C45.521,20.565,45.376,17.902,45.376,15.249z"/>
		<path fill-rule="evenodd" clip-rule="evenodd" fill="#F1F1F1" d="M204,49.642c0,0,0.017-0.021,0.017-0.021
			c-4.537,1.128-2.936-2.439-2.89-4.2c0.044-1.676-1.485-4.646,1.269-4.923c3.126-0.313,3.891,2.434,3.727,5.207
			c-0.039,0.66-0.098,1.32-0.147,1.98c-0.347,0.477-0.693,0.952-1.04,1.429C204.623,49.289,204.312,49.466,204,49.642z"/>
		<path fill-rule="evenodd" clip-rule="evenodd" fill="#252525" d="M204.935,49.113c0.347-0.477,0.693-0.952,1.04-1.429
			C205.628,48.161,205.281,48.637,204.935,49.113z"/>
		<path fill-rule="evenodd" clip-rule="evenodd" fill="#FBFBFB" d="M35.947,65.47c-0.083,1.213-1.058,1.273-2.02,1.341
			c-1.116,0.078-1.924-0.309-1.973-1.542c-0.043-1.08,0.291-1.884,1.625-1.87C34.943,63.412,35.7,64.049,35.947,65.47z"/>
		<path fill-rule="evenodd" clip-rule="evenodd" fill="#E9E9E9" d="M69.194,46.384c-0.156,1.536-0.152,3.355-2.058,3.489
			c-1.758,0.124-1.935-1.52-1.89-2.87c0.062-1.871,1.073-3.365,2.941-3.328C69.922,43.711,69.013,45.429,69.194,46.384z"/>
		<path fill-rule="evenodd" clip-rule="evenodd" fill="#E9E9E9" d="M10.243,68.896c-0.131,1.71-0.079,3.697-2.132,3.906
			c-1.602,0.163-1.896-1.492-1.866-2.812c0.041-1.792,0.898-3.329,2.727-3.509C10.763,66.307,10.055,68.009,10.243,68.896z"/>
		<path fill-rule="evenodd" clip-rule="evenodd" fill="#E9E9E9" d="M131.956,68.29c0.192-2.393,0.295-5.063,3.082-4.947
			c2.638,0.109,2.949,2.751,2.894,4.922c-0.05,2.014-0.567,4.364-2.944,4.455C132.015,72.832,132.162,70.169,131.956,68.29z"/>
		<path fill-rule="evenodd" clip-rule="evenodd" fill="#D6D6D6" d="M58.791,69.998c0.385-1.643,0.197-3.844,2.548-3.493
			c1.345,0.201,1.813,1.813,1.49,3.224c-0.335,1.468-0.945,3.057-2.68,3.068C58.028,72.811,58.781,71.084,58.791,69.998z"/>
		<path fill-rule="evenodd" clip-rule="evenodd" fill="#FBFBFB" d="M191.624,71.616c-1.211,0.569-1.416,0.073-1.07-1.009
			C190.909,70.943,191.267,71.279,191.624,71.616z"/>
		<path fill-rule="evenodd" clip-rule="evenodd" fill="#D6D6D6" d="M21.823,70.387c-0.737,2.348-1.772,3.166-3.514,2.303
			c-0.487-0.242-1.156-1.189-1.026-1.437C18.342,69.245,20.094,70.587,21.823,70.387z"/>
		<path fill-rule="evenodd" clip-rule="evenodd" fill="#F1F1F1" d="M119.402,50c-1.775-0.055-2.164-1.266-2.235-2.689
			c-0.087-1.732,0.065-3.587,2.232-3.705c1.656-0.09,1.983,1.545,2.015,2.878C121.449,47.987,121.237,49.499,119.402,50z"/>
		<path fill-rule="evenodd" clip-rule="evenodd" fill="#F1F1F1" d="M163.145,50.029c-2.087-0.389-2.005-1.995-2.029-3.483
			c-0.022-1.43,0.433-2.867,2.005-2.951c2.021-0.106,2.256,1.629,2.249,3.148C165.362,48.273,165.068,49.77,163.145,50.029z"/>
		<path fill-rule="evenodd" clip-rule="evenodd" fill="#F1F1F1" d="M55.406,46.813c-0.201,1.506-0.334,3.217-2.374,3.14
			c-1.753-0.067-1.869-1.602-1.912-2.963c-0.051-1.582,0.243-3.28,2.079-3.379C55.164,43.507,55.283,45.302,55.406,46.813z"/>
		<path fill-rule="evenodd" clip-rule="evenodd" fill="#202020" d="M200.724,66.902c0,1.589,0,3.178,0,5.548
			C198.542,70.206,199.084,68.587,200.724,66.902z"/>
		<path fill-rule="evenodd" clip-rule="evenodd" fill="#F1F1F1" d="M222.911,72.971c-1.891-0.521-1.838-2.058-1.814-3.516
			c0.025-1.58,0.557-3.214,2.375-2.964c2.168,0.298,1.795,2.347,1.753,3.922C225.185,71.87,224.495,72.862,222.911,72.971z"/>
		<path fill-rule="evenodd" clip-rule="evenodd" fill="#F1F1F1" d="M280.254,46.92c-0.067,1.274-0.117,2.949-2.08,3.024
			c-2.065,0.078-2.062-1.633-2.12-3.115c-0.061-1.574,0.293-3.169,2.086-3.248C280.069,43.497,280.233,45.183,280.254,46.92z"/>
		<path fill-rule="evenodd" clip-rule="evenodd" fill="#E9E9E9" d="M257.808,50.105c-2.23-0.438-2.081-2.087-2.086-3.52
			c-0.006-1.581,0.495-3.217,2.393-3.056c1.864,0.158,2.062,1.878,1.994,3.431C260.04,48.564,259.47,49.834,257.808,50.105z"/>
	</g>
</g>
</svg>
