<?xml version="1.0" encoding="utf-8"?>
<!-- Generator: Adobe Illustrator 22.1.0, SVG Export Plug-In . SVG Version: 6.00 Build 0)  -->
<svg version="1.1" id="Layer_1" xmlns="http://www.w3.org/2000/svg" xmlns:xlink="http://www.w3.org/1999/xlink" x="0px" y="0px"
	 viewBox="0 0 450 191.3" style="enable-background:new 0 0 450 191.3;" xml:space="preserve">
<style type="text/css">
	.st0{fill:#231F20;}
</style>
<g>
	<g>
		<g>
			<path class="st0" d="M0.2,110.3h3.4V131c0,3.8,1.8,5.4,5.6,5.4s5.6-1.6,5.6-5.4v-20.7H18V131c0,5.9-3.1,8.5-9,8.5S0,137,0,131
				C0.2,131.2,0.2,110.3,0.2,110.3z"/>
			<path class="st0" d="M26.8,139.1v-28.8h4.3l10.6,23h0.4v-23h3.1v28.8H41L30.4,115h-0.4v24.1H26.8z"/>
			<path class="st0" d="M54.4,139.1v-28.8h3.2v28.8H54.4z"/>
			<path class="st0" d="M80.5,110.3h3.4l-7.7,28.8h-4.5l-7.7-28.8h3.4l6.5,24.5H74L80.5,110.3z"/>
			<path class="st0" d="M90.4,139.1v-28.8H106v2.9H93.6v9.4h10.8v2.9H93.6v10.4h12.8v2.9L90.4,139.1L90.4,139.1z"/>
			<path class="st0" d="M116.5,139.1H113v-28.8h9.9c5.2,0,8.3,2.9,8.3,8.5c0,4.3-2,6.7-4,7.4l4.1,13h-3.6l-3.6-12.1h-7.7V139.1z
				 M116.5,124.2h5.9c3.6,0,5.4-1.8,5.4-5.4s-1.6-5.4-5.4-5.4h-5.9V124.2z"/>
			<path class="st0" d="M154.1,117.5c-0.4-3.4-2.2-4.7-5.8-4.7c-3.4,0-5.8,1.3-5.8,4.7c0,3.2,2.7,4.1,6.1,5.2
				c4.7,1.4,8.8,2.9,8.8,8.5c0,5.6-3.8,8.3-9.2,8.3c-5.8,0-9.2-2.5-9.5-8.3l3.4-0.4c0.4,3.8,2.2,5.6,6.1,5.6c3.4,0,5.9-1.6,5.9-5.2
				c0-3.4-2-4.1-6.3-5.4c-4.7-1.4-8.6-2.5-8.6-8.1c0-5.6,3.6-7.9,9-7.9c5.2,0,8.6,2,9,7.4L154.1,117.5z"/>
			<path class="st0" d="M165.6,139.1v-28.8h3.4v28.8H165.6z"/>
			<path class="st0" d="M178.2,110.3h9.4c5.9,0,9.2,2.2,9.2,8.3v12.2c0,6.1-3.2,8.1-9.2,8.1h-9.4V110.3z M181.6,136.3h6.3
				c3.4,0,5.6-1.6,5.6-4.9v-13.1c0-3.2-2.2-5-5.6-5h-6.3V136.3z"/>
			<path class="st0" d="M205.7,139.1h-3.4l8.5-28.8h4.9l8.5,28.8h-3.4l-2.2-7h-10.8L205.7,139.1z M208.4,129.1h9.2l-4.3-15.1h-0.5
				L208.4,129.1z"/>
			<path class="st0" d="M230.4,110.3h9.4c5.9,0,9.2,2.2,9.2,8.3v12.2c0,6.1-3.2,8.1-9.2,8.1h-9.4V110.3z M233.6,136.3h6.3
				c3.4,0,5.6-1.6,5.6-4.9v-13.1c0-3.2-2.2-5-5.6-5h-6.3V136.3z"/>
			<path class="st0" d="M268,139.1v-28.8h4.3l10.6,23h0.4v-23h3.1v28.8h-4.1L271.6,115h-0.5v24.1H268z"/>
			<path class="st0" d="M296.1,139.1h-3.4l8.5-28.8h4.9l8.5,28.8H311l-2.2-7h-10.8L296.1,139.1z M299.2,129.1h9.2l-4.3-15.1h-0.5
				L299.2,129.1z"/>
			<path class="st0" d="M333.9,119.2v-1.1c0-3.6-1.8-4.9-5.4-4.9c-3.6,0-5.8,1.4-5.8,4.9v13.3c0,3.4,2.2,5,5.8,5
				c3.6,0,5.4-1.4,5.4-5v-1.1l3.4,0.4v0.5c0,5.9-3.1,8.5-9,8.5s-9.2-2.2-9.2-8.1v-13.1c0-5.9,3.2-8.1,9.2-8.1s9,2.3,9,8.5v0.4
				L333.9,119.2z"/>
			<path class="st0" d="M345.2,139.1v-28.8h3.4v28.8H345.2z"/>
			<path class="st0" d="M356.9,118.3c0-6.1,3.4-8.3,9.4-8.3s9.4,2.2,9.4,8.3v13c0,6.1-3.4,8.3-9.4,8.3s-9.4-2.2-9.4-8.3V118.3z
				 M360.4,131.4c0,3.6,2.2,4.9,5.9,4.9c3.8,0,5.9-1.4,5.9-4.9v-13.5c0-3.6-2.2-4.9-5.9-4.9c-3.8,0-5.9,1.4-5.9,4.9V131.4z"/>
			<path class="st0" d="M384.1,139.1v-28.8h4.3l10.6,23h0.4v-23h3.1v28.8h-4.1L387.7,115h-0.4v24.1H384.1z"/>
			<path class="st0" d="M412.2,139.1h-3.4l8.5-28.8h4.9l8.5,28.8h-3.4l-2.2-7h-10.8L412.2,139.1z M415.1,129.1h9.2l-4.3-15.1h-0.5
				L415.1,129.1z"/>
			<path class="st0" d="M436.9,139.1v-28.8h3.4v25.7h9.7v2.9L436.9,139.1L436.9,139.1z"/>
			<path class="st0" d="M0.5,162.2h9.4c5.9,0,9.2,2.2,9.2,8.3v12.2c0,6.1-3.2,8.1-9.2,8.1H0.5V162.2z M4,188.1h6.3
				c3.4,0,5.6-1.6,5.6-4.9v-13.1c0-3.2-2.2-5-5.6-5H4V188.1z"/>
			<path class="st0" d="M27.4,191v-28.8H43v2.9H30.8v9.4h10.6v2.9H30.8v10.4h12.8v2.9L27.4,191L27.4,191z"/>
			<path class="st0" d="M64.8,165.1h-6.7v-2.9h16.9v2.9h-6.7v25.7H65L64.8,165.1L64.8,165.1z"/>
			<path class="st0" d="M84.6,191h-3.4v-28.8h9.9c5.2,0,8.3,2.9,8.3,8.5c0,4.3-2,6.7-4,7.4l4.1,13h-3.6l-3.8-12.1h-7.6V191z
				 M84.6,175.9h5.9c3.6,0,5.4-1.8,5.4-5.4c0-3.6-1.6-5.4-5.4-5.4h-5.9V175.9L84.6,175.9z"/>
			<path class="st0" d="M108.2,191v-28.8h15.7v2.9h-12.2v9.4h10.6v2.9h-10.6v10.4h12.8v2.9L108.2,191L108.2,191z"/>
			<path class="st0" d="M145.1,169.4c-0.4-3.4-2.2-4.7-5.8-4.7c-3.4,0-5.8,1.3-5.8,4.7c0,3.2,2.7,4.1,6.1,5.2
				c4.7,1.4,8.8,2.9,8.8,8.5c0,5.6-3.8,8.3-9.2,8.3c-5.8,0-9.2-2.5-9.5-8.3l3.4-0.4c0.4,3.8,2.2,5.6,6.1,5.6c3.4,0,5.9-1.6,5.9-5.2
				c0-3.4-2-4.1-6.3-5.4c-4.7-1.4-8.6-2.5-8.6-8.1c0-5.6,3.6-7.9,9-7.9c5.2,0,8.6,2,9,7.4L145.1,169.4z"/>
			<path class="st0" d="M167.4,162.2h9.4c5.9,0,9.2,2.2,9.2,8.3v12.2c0,6.1-3.2,8.1-9.2,8.1h-9.4V162.2z M170.6,188.1h6.3
				c3.4,0,5.6-1.6,5.6-4.9v-13.1c0-3.2-2.2-5-5.6-5h-6.3V188.1z"/>
			<path class="st0" d="M194.2,191v-28.8h15.7v2.9h-12.2v9.4h10.6v2.9h-10.6v10.4h12.8v2.9L194.2,191L194.2,191z"/>
			<path class="st0" d="M228.1,191v-28.8h14.8v2.9h-11.5v9.4h9.9v2.9h-9.9v13.5L228.1,191L228.1,191z"/>
			<path class="st0" d="M249.3,191v-28.8h15.5v2.9h-12.2v9.4h10.6v2.9h-10.6v10.4h12.8v2.9L249.3,191L249.3,191z"/>
			<path class="st0" d="M272.2,162.2h11c5.2,0,7.7,2.3,7.7,7.2c0,3.1-0.9,5.2-3.2,6.1v0.4c2,0.9,4,2.9,4,7c0,4.9-2.3,7.9-7.9,7.9
				h-11.3v-28.6H272.2z M275.6,174.4h6.7c3.4,0,5.2-1.4,5.2-4.7c0-3.2-1.6-4.9-5-4.9h-6.7v9.5H275.6z M275.6,187.9h6.8
				c3.8,0,5.4-1.8,5.4-5.4c0-3.6-2.2-5.2-5.8-5.2h-6.5V187.9z"/>
			<path class="st0" d="M302.9,191h-3.4v-28.8h9.9c5.2,0,8.3,2.9,8.3,8.5c0,4.3-2,6.7-4,7.4l4.1,13h-3.6l-3.8-12.1h-7.7V191H302.9z
				 M302.9,175.9h5.9c3.6,0,5.4-1.8,5.4-5.4c0-3.6-1.6-5.4-5.4-5.4h-5.9V175.9z"/>
			<path class="st0" d="M326.5,191v-28.8h15.7v2.9h-12.2v9.4h10.6v2.9h-10.6v10.4h12.8v2.9L326.5,191L326.5,191z"/>
			<path class="st0" d="M352.8,191h-3.4v-28.8h9.9c5.2,0,8.3,2.9,8.3,8.5c0,4.3-2,6.7-4,7.4l4.1,13h-3.6l-3.8-12.1h-7.6V191z
				 M352.8,175.9h5.9c3.6,0,5.4-1.8,5.4-5.4c0-3.6-1.6-5.4-5.4-5.4h-5.9V175.9z"/>
			<path class="st0" d="M375.5,169.9c0-6.1,3.4-8.3,9.4-8.3s9.4,2.2,9.4,8.3v13c0,6.1-3.4,8.3-9.4,8.3s-9.4-2.2-9.4-8.3V169.9z
				 M378.9,183.2c0,3.6,2.2,4.9,5.9,4.9c3.8,0,5.9-1.4,5.9-4.9v-13.5c0-3.6-2.2-4.9-5.9-4.9c-3.8,0-5.9,1.4-5.9,4.9V183.2z"/>
		</g>
	</g>
	<g>
		<rect x="0" y="78.1" class="st0" width="317.9" height="11.9"/>
		<g>
			<path class="st0" d="M0.2,0.2h11.5v40c0,6.7,3.4,9.2,9.9,9.2s10.1-2.7,10.1-9.2v-40h11.5v40c0,12.4-7.7,18.7-21.6,18.7
				S0,52.7,0,40.1v-40H0.2z M61.9,57.6V0h13.5l19.1,38.5H95V0.2h11v57.6H92.9L73.4,17.6h-0.5v40H61.9L61.9,57.6z M131.6,9.7H117V0.2
				h40.7v9.7h-14.6V58h-11.5V9.7L131.6,9.7z M179.8,25.6h9.4c6.7,0,10.1-1.8,10.1-8.1s-3.4-8.1-10.1-8.1h-9.4V25.6L179.8,25.6z
				 M179.8,57.6h-11.5V0h23.9c12.8,0,19.1,5.8,19.1,17.3c0,9.2-4.5,13.7-8.8,15.1l9.7,25h-12.4l-8.5-22.9h-11.5V57.6L179.8,57.6z
				 M281.3,57.6V0h36.4v9.4h-24.8v13.5h22.7v9.5h-22.7v25.2H281.3L281.3,57.6z M227.9,57.6V0h38v9.4h-26.5v13.5h24.3v9.5h-24.3v15.7
				h27.7v9.5H227.9L227.9,57.6z"/>
		</g>
	</g>
</g>
</svg>
